# xmcd CD database file
#
# Track frame offsets:
#	150
#	22838
#	47289
#	70557
#	100676
#	124485
#	144481
#	161521
#	169682
#	190734
#	203961
#	223698
#	235040
#
# Disc length: 3416 seconds
#
# Revision: 0
# Processed by: cddbd v1.5.2PL0 Copyright (c) Steve Scherf et al.
# Submitted via: CDex 1.70beta2
#
DISCID=a70d560d
DTITLE=Paolo Fresu, A Filetta Corsican Voices, Daniele di Bonaventura - Mistico Mediterraneo
DYEAR=2011
DGENRE=Jazz
TTITLE0=Rex tremendae
TTITLE1=Liberata
TTITLE2=Da te a me
TTITLE3=Le lac
TTITLE4=Dies irae
TTITLE5=Gloria
TTITLE6=Corale
TTITLE7=La folie du Cardinal
TTITLE8=U sipolcru
TTITLE9=Scherzi veranili
TTITLE10=Figliolu d’ella
TTITLE11=Gradualis
TTITLE12=Sanctus
EXTD=YEAR: 2011
EXTT0=
EXTT1=
EXTT2=
EXTT3=
EXTT4=
EXTT5=
EXTT6=
EXTT7=
EXTT8=
EXTT9=
EXTT10=
EXTT11=
EXTT12=
PLAYORDER=
